<svg width="22" height="18" viewBox="0 0 22 18" fill="#2EF441" xmlns="http://www.w3.org/2000/svg">
<path d="M14.2169 3.024L16.8563 3.56203C16.9252 3.57282 16.9811 3.61603 16.997 3.66922L17.6928 5.69658C17.7116 5.7561 17.7797 5.79793 17.859 5.79793C17.939 5.79793 18.0065 5.7561 18.0244 5.69658L18.7213 3.66922C18.7361 3.61607 18.7924 3.57282 18.8612 3.56203L21.501 3.024C21.5782 3.01289 21.633 2.96002 21.633 2.89909C21.633 2.8376 21.5782 2.78582 21.501 2.77393L18.8612 2.23615C18.7924 2.22483 18.7361 2.18215 18.7213 2.12899L18.0244 0.101637C18.0064 0.0426445 17.939 0 17.859 0C17.7797 0 17.7115 0.0426445 17.6928 0.101637L16.997 2.12899C16.9811 2.18215 16.9252 2.22483 16.8563 2.23615L14.2169 2.77393C14.139 2.78585 14.085 2.83764 14.085 2.89909C14.085 2.96002 14.1391 3.01293 14.2169 3.024Z" fill="#2EF441"/>
<path d="M16.9157 11.4796L15.7176 11.2356C15.6863 11.2301 15.6607 11.2112 15.6538 11.1869L15.338 10.2667C15.3297 10.2398 15.299 10.2207 15.2627 10.2207C15.227 10.2207 15.196 10.2398 15.1873 10.2667L14.8715 11.1869C14.8643 11.2113 14.8391 11.2301 14.8077 11.2356L13.61 11.4796C13.5747 11.4849 13.5498 11.5087 13.5498 11.5364C13.5498 11.5641 13.5747 11.5879 13.61 11.5934L14.8077 11.8371C14.8391 11.8421 14.8643 11.862 14.8715 11.8864L15.1873 12.8061C15.196 12.8329 15.227 12.852 15.2627 12.852C15.2991 12.852 15.3297 12.8329 15.338 12.8061L15.6538 11.8864C15.6607 11.862 15.6863 11.8421 15.7176 11.8371L16.9157 11.5934C16.9503 11.5879 16.9756 11.5641 16.9756 11.5364C16.9755 11.5087 16.9503 11.4849 16.9157 11.4796Z" fill="#2EF441"/>
<path d="M1.01573 4.92453L2.90165 5.30833C2.95135 5.31638 2.99072 5.34714 3.00257 5.38532L3.49936 6.8339C3.51305 6.87683 3.56175 6.90646 3.61836 6.90646C3.6753 6.90646 3.72363 6.87683 3.737 6.8339L4.23416 5.38532C4.24464 5.34714 4.28537 5.31638 4.33476 5.30833L6.22104 4.92453C6.27619 4.91567 6.31546 4.87746 6.31546 4.83425C6.31546 4.79104 6.27619 4.75395 6.22104 4.74509L4.33476 4.3607C4.28537 4.3524 4.24464 4.32252 4.23416 4.28427L3.737 2.83488C3.72363 2.79276 3.67535 2.76288 3.61836 2.76288C3.56179 2.76288 3.51309 2.79276 3.49936 2.83488L3.00257 4.2843C2.99067 4.32252 2.95135 4.3524 2.90165 4.36073L1.01573 4.74513C0.959483 4.75399 0.920898 4.79108 0.920898 4.83428C0.920898 4.87746 0.959483 4.91571 1.01573 4.92453Z" fill="#2EF441"/>
<path d="M17.4347 9.73469C17.0741 9.41069 16.559 9.12325 15.9237 8.88232H15.9244C14.6575 8.40047 12.9202 8.10558 11.0004 8.10474L10.9949 8.10498V8.10474C9.73416 8.10498 8.55091 8.23211 7.52809 8.45588C6.50526 8.67965 5.64437 8.99865 5.02423 9.38636L5.02528 9.38579C4.61106 9.64444 4.30642 9.933 4.13734 10.2468C4.04067 10.4248 3.98987 10.6126 3.99024 10.8028C3.99024 10.9593 4.15537 11.0864 4.35942 11.0864C4.56351 11.0864 4.7286 10.9593 4.7286 10.8028C4.72897 10.6884 4.75712 10.5796 4.81945 10.4633C4.92724 10.2617 5.14753 10.0396 5.4904 9.82637L5.49145 9.82581C6.00197 9.50459 6.78144 9.20773 7.73035 9.00143C8.67925 8.79345 9.79907 8.67188 10.9949 8.67216H11.0144C12.8282 8.67244 14.4668 8.95851 15.596 9.39051L15.5971 9.39079C16.1638 9.60513 16.6012 9.8571 16.8734 10.103C17.0104 10.2263 17.1077 10.3473 17.1701 10.4633C17.248 10.6081 17.4636 10.6768 17.6521 10.617C17.8407 10.5572 17.9301 10.3916 17.8522 10.2468C17.7559 10.0678 17.6153 9.8964 17.4347 9.73469Z" fill="#2EF441"/>
<path d="M21.5233 9.56135C21.3676 9.27279 21.1545 9.00448 20.8974 8.75662C20.6404 8.50905 20.3397 8.28142 20.0051 8.07206L19.9846 8.05934L20.0044 8.07206C18.9992 7.44456 17.6764 6.96492 16.1442 6.62819H16.1439C14.6102 6.2934 12.8605 6.10648 11.0002 6.10648C9.58263 6.10648 8.22989 6.21504 6.98755 6.41469C5.74516 6.61438 4.61313 6.90512 3.6368 7.27563L3.63607 7.27591C2.66085 7.64755 1.83163 8.10005 1.2162 8.65193L1.22737 8.64138L1.21584 8.65193C0.908673 8.92833 0.654877 9.23155 0.477106 9.56135C0.299014 9.89143 0.199876 10.2473 0.200196 10.6136V13.492C0.199876 13.8587 0.299014 14.2148 0.477106 14.5449C0.632862 14.8334 0.845968 15.1014 1.10301 15.3493C1.36042 15.5972 1.66072 15.8245 1.99526 16.0339L1.99599 16.0341C3.00115 16.6611 4.32354 17.1418 5.85579 17.478L5.86403 17.4794C7.39605 17.8131 9.14277 17.9998 11.0002 18H11.0006C12.4178 17.9998 13.7705 17.8912 15.0129 17.6916C16.2553 17.4919 17.3873 17.2008 18.3636 16.8306L18.3643 16.83C19.3395 16.4584 20.1684 16.0056 20.7842 15.4543L20.7846 15.4537C21.0917 15.1779 21.3451 14.875 21.5229 14.5449L21.5118 14.5651L21.5233 14.5449C21.701 14.2148 21.8002 13.8587 21.8002 13.492V10.6137C21.8002 10.2473 21.7011 9.89143 21.5233 9.56135ZM2.61686 14.991C2.50331 14.9088 2.3973 14.8251 2.30288 14.7406C2.07897 14.5391 1.91095 14.3328 1.79881 14.1251C1.68667 13.9168 1.63047 13.7072 1.63047 13.492V12.1872C1.8493 12.3946 2.10781 12.5904 2.40019 12.7737C2.47053 12.8172 2.54262 12.8601 2.61686 12.9028V14.991ZM4.68773 15.9938C4.54534 15.9461 4.4051 15.8974 4.27058 15.8459C3.95729 15.7268 3.66884 15.5997 3.40571 15.4671V13.2988C3.79833 13.4719 4.22733 13.6305 4.68773 13.7734V15.9938ZM7.25214 16.6116C6.60248 16.506 5.99282 16.3739 5.43077 16.2197H5.47727V13.9947C5.65788 14.0406 5.8432 14.0841 6.03209 14.1257C6.42293 14.2109 6.83106 14.2857 7.25214 14.3508V16.6116ZM10.6055 16.8981C9.71206 16.8843 8.85328 16.8217 8.04136 16.7209V14.4568C8.85795 14.5537 9.71673 14.6105 10.6055 14.6238V16.8981ZM14.0578 16.7074C13.2171 16.8151 12.3252 16.8826 11.395 16.8965V14.6252C12.3194 14.6113 13.2124 14.5496 14.0578 14.4465V16.7074ZM16.6223 16.2058C16.344 16.2834 16.0541 16.3554 15.7523 16.4213C15.461 16.485 15.1575 16.5417 14.8467 16.5938V14.3358C15.4715 14.2366 16.0657 14.1131 16.6223 13.9689V16.2058ZM18.6935 15.4155C18.32 15.6121 17.8902 15.7949 17.4111 15.961V13.7418C17.6418 13.6684 17.8657 13.5914 18.0795 13.5103C18.2933 13.4286 18.4977 13.343 18.6935 13.2544V15.4155ZM20.37 13.492C20.37 13.7072 20.3138 13.9168 20.2013 14.125C20.057 14.3942 19.8151 14.662 19.4823 14.9187V12.8711H19.4355C19.7628 12.6792 20.0531 12.4746 20.2971 12.2556C20.322 12.2331 20.3458 12.2104 20.3699 12.1877V13.492H20.37ZM20.2013 11.2462C20.0066 11.6095 19.6352 11.97 19.1017 12.3037C18.3031 12.8044 17.1447 13.2387 15.7524 13.5424C14.3604 13.847 12.7351 14.0229 11.0003 14.0229C8.35722 14.0237 5.96655 13.613 4.27063 12.967C3.42269 12.6449 2.75065 12.265 2.30288 11.8615C2.07897 11.6602 1.91095 11.4539 1.79881 11.2462C1.68667 11.0379 1.63047 10.8286 1.63047 10.6137C1.63047 10.3988 1.68667 10.1895 1.79881 9.98122C1.99425 9.61764 2.36485 9.25707 2.89881 8.92393C3.69777 8.42296 4.85576 7.9885 6.24813 7.68471C7.64014 7.3804 9.26576 7.20479 11.0003 7.20479C13.6433 7.20367 16.0336 7.61464 17.7295 8.26043C18.5778 8.58221 19.2502 8.96271 19.6973 9.3656C19.9215 9.56694 20.0895 9.77324 20.2013 9.98119C20.3138 10.1895 20.37 10.3988 20.37 10.6137C20.37 10.8286 20.3138 11.0379 20.2013 11.2462Z" fill="#2EF441"/>
</svg>
