<svg width="24" height="24" viewBox="0 0 24 24" fill="none" xmlns="http://www.w3.org/2000/svg">
<path d="M21.9788 5.33261C22.8407 6.62011 23.4601 8.08372 23.7716 9.65806L22.3001 9.94916C22.4311 10.6112 22.5 11.2968 22.5 12C22.5 12.7032 22.4311 13.3888 22.3001 14.0508L23.7716 14.3419C23.4601 15.9163 22.8407 17.3799 21.9788 18.6674L20.7323 17.8329C19.9653 18.9786 18.9786 19.9653 17.8329 20.7323L18.6674 21.9788C17.3799 22.8407 15.9163 23.4601 14.3419 23.7716L14.0508 22.3001C13.3888 22.4311 12.7032 22.5 12 22.5C11.2968 22.5 10.6112 22.4311 9.94916 22.3001L9.65806 23.7716C8.08372 23.4601 6.62011 22.8407 5.33261 21.9788L6.16709 20.7323C5.02141 19.9653 4.03469 18.9786 3.26767 17.8329L2.02122 18.6674C1.15926 17.3799 0.53986 15.9163 0.228409 14.3419L1.69989 14.0508C1.56891 13.3888 1.5 12.7032 1.5 12C1.5 11.2968 1.56891 10.6112 1.69989 9.94916L0.228409 9.65806C0.539859 8.08372 1.15926 6.62011 2.02121 5.33261L3.26767 6.16709C4.03469 5.02141 5.0214 4.03469 6.16709 3.26767L5.33261 2.02122C6.62011 1.15926 8.08372 0.53986 9.65806 0.228409L9.94916 1.69989C10.6112 1.56891 11.2968 1.5 12 1.5C12.7032 1.5 13.3888 1.56891 14.0508 1.69989L14.3419 0.228409C15.9163 0.53986 17.3799 1.15926 18.6674 2.02121L17.8329 3.26767C18.9786 4.03469 19.9653 5.0214 20.7323 6.16709L21.9788 5.33261Z" fill="#FF1493" stroke="#FFF3F3" stroke-width="3" stroke-dasharray="6 6"/>
</svg>
