<svg width="24" height="29" viewBox="0 0 24 29" fill="none" xmlns="http://www.w3.org/2000/svg">
<path d="M21.9788 8.33261C22.8407 9.62011 23.4601 11.0837 23.7716 12.6581L22.3001 12.9492C22.4311 13.6112 22.5 14.2968 22.5 15C22.5 15.7032 22.4311 16.3888 22.3001 17.0508L23.7716 17.3419C23.4601 18.9163 22.8407 20.3799 21.9788 21.6674L20.7323 20.8329C19.9653 21.9786 18.9786 22.9653 17.8329 23.7323L18.6674 24.9788C17.3799 25.8407 15.9163 26.4601 14.3419 26.7716L14.0508 25.3001C13.3888 25.4311 12.7032 25.5 12 25.5C11.2968 25.5 10.6112 25.4311 9.94916 25.3001L9.65806 26.7716C8.08372 26.4601 6.62011 25.8407 5.33261 24.9788L6.16709 23.7323C5.02141 22.9653 4.03469 21.9786 3.26767 20.8329L2.02122 21.6674C1.15926 20.3799 0.53986 18.9163 0.228409 17.3419L1.69989 17.0508C1.56891 16.3888 1.5 15.7032 1.5 15C1.5 14.2968 1.56891 13.6112 1.69989 12.9492L0.228409 12.6581C0.539859 11.0837 1.15926 9.62011 2.02121 8.33261L3.26767 9.16709C4.03469 8.02141 5.0214 7.03469 6.16709 6.26767L5.33261 5.02122C6.62011 4.15926 8.08372 3.53986 9.65806 3.22841L9.94916 4.69989C10.6112 4.56891 11.2968 4.5 12 4.5C12.7032 4.5 13.3888 4.56891 14.0508 4.69989L14.3419 3.22841C15.9163 3.53986 17.3799 4.15926 18.6674 5.02121L17.8329 6.26767C18.9786 7.03469 19.9653 8.0214 20.7323 9.16709L21.9788 8.33261Z" fill="#FF1493" stroke="#FFF3F3" stroke-width="3" stroke-dasharray="6 6"/>
<path d="M11.248 18.822V15.636H8.026V13.8H11.248V10.614H13.192V13.8H16.432V15.636H13.192V18.822H11.248Z" fill="white"/>
</svg>
